<?xml version="1.0" encoding="UTF-8" standalone="no"?>
<svg
   xmlns:dc="http://purl.org/dc/elements/1.1/"
   xmlns:cc="http://creativecommons.org/ns#"
   xmlns:rdf="http://www.w3.org/1999/02/22-rdf-syntax-ns#"
   xmlns:svg="http://www.w3.org/2000/svg"
   xmlns="http://www.w3.org/2000/svg"
   width="210mm"
   height="297mm"
   viewBox="0 0 210 297"
   version="1.1"
   id="svg2093">
  <defs
     id="defs2087" />
  <metadata
     id="metadata2090">
    <rdf:RDF>
      <cc:Work
         rdf:about="">
        <dc:format>image/svg+xml</dc:format>
        <dc:type
           rdf:resource="http://purl.org/dc/dcmitype/StillImage" />
        <dc:title></dc:title>
      </cc:Work>
    </rdf:RDF>
  </metadata>
  <g
     id="layer1">
    <path
       id="path2800"
       style="opacity:0.998;fill:#666666;stroke:none;stroke-width:2;stroke-linejoin:bevel"
       d="M 32.486328 20 A 12.499999 12.499999 0 0 0 20 32.5 A 12.499999 12.499999 0 0 0 32.5 45 A 12.499999 12.499999 0 0 0 45 32.5 A 12.499999 12.499999 0 0 0 32.5 20 A 12.499999 12.499999 0 0 0 32.486328 20 z M 32.5 27.5 A 4.9999998 4.9999998 0 0 1 32.6875 27.503906 A 4.9999998 4.9999998 0 0 1 32.875 27.513672 A 4.9999998 4.9999998 0 0 1 33.0625 27.53125 A 4.9999998 4.9999998 0 0 1 33.25 27.556641 A 4.9999998 4.9999998 0 0 1 33.435547 27.587891 A 4.9999998 4.9999998 0 0 1 33.619141 27.626953 A 4.9999998 4.9999998 0 0 1 33.800781 27.671875 A 4.9999998 4.9999998 0 0 1 33.982422 27.724609 A 4.9999998 4.9999998 0 0 1 34.160156 27.783203 A 4.9999998 4.9999998 0 0 1 34.335938 27.849609 A 4.9999998 4.9999998 0 0 1 34.509766 27.921875 A 4.9999998 4.9999998 0 0 1 34.679688 28 A 4.9999998 4.9999998 0 0 1 34.847656 28.085938 A 4.9999998 4.9999998 0 0 1 35.011719 28.177734 A 4.9999998 4.9999998 0 0 1 35.173828 28.275391 A 4.9999998 4.9999998 0 0 1 35.330078 28.378906 A 4.9999998 4.9999998 0 0 1 35.482422 28.488281 A 4.9999998 4.9999998 0 0 1 35.632812 28.601562 A 4.9999998 4.9999998 0 0 1 35.775391 28.722656 A 4.9999998 4.9999998 0 0 1 35.916016 28.849609 A 4.9999998 4.9999998 0 0 1 36.050781 28.980469 A 4.9999998 4.9999998 0 0 1 36.179688 29.115234 A 4.9999998 4.9999998 0 0 1 36.304688 29.255859 A 4.9999998 4.9999998 0 0 1 36.423828 29.402344 A 4.9999998 4.9999998 0 0 1 36.539062 29.550781 A 4.9999998 4.9999998 0 0 1 36.646484 29.705078 A 4.9999998 4.9999998 0 0 1 36.748047 29.863281 A 4.9999998 4.9999998 0 0 1 36.84375 30.025391 A 4.9999998 4.9999998 0 0 1 36.933594 30.189453 A 4.9999998 4.9999998 0 0 1 37.017578 30.359375 A 4.9999998 4.9999998 0 0 1 37.095703 30.529297 A 4.9999998 4.9999998 0 0 1 37.166016 30.703125 A 4.9999998 4.9999998 0 0 1 37.230469 30.880859 A 4.9999998 4.9999998 0 0 1 37.287109 31.060547 A 4.9999998 4.9999998 0 0 1 37.337891 31.240234 A 4.9999998 4.9999998 0 0 1 37.382812 31.423828 A 4.9999998 4.9999998 0 0 1 37.419922 31.607422 A 4.9999998 4.9999998 0 0 1 37.449219 31.792969 A 4.9999998 4.9999998 0 0 1 37.472656 31.980469 A 4.9999998 4.9999998 0 0 1 37.488281 32.167969 A 4.9999998 4.9999998 0 0 1 37.498047 32.355469 A 4.9999998 4.9999998 0 0 1 37.5 32.5 A 4.9999998 4.9999998 0 0 1 37.496094 32.6875 A 4.9999998 4.9999998 0 0 1 37.486328 32.875 A 4.9999998 4.9999998 0 0 1 37.46875 33.0625 A 4.9999998 4.9999998 0 0 1 37.443359 33.25 A 4.9999998 4.9999998 0 0 1 37.412109 33.435547 A 4.9999998 4.9999998 0 0 1 37.373047 33.619141 A 4.9999998 4.9999998 0 0 1 37.328125 33.800781 A 4.9999998 4.9999998 0 0 1 37.275391 33.982422 A 4.9999998 4.9999998 0 0 1 37.216797 34.160156 A 4.9999998 4.9999998 0 0 1 37.150391 34.335938 A 4.9999998 4.9999998 0 0 1 37.078125 34.509766 A 4.9999998 4.9999998 0 0 1 37 34.679688 A 4.9999998 4.9999998 0 0 1 36.914062 34.847656 A 4.9999998 4.9999998 0 0 1 36.822266 35.011719 A 4.9999998 4.9999998 0 0 1 36.724609 35.173828 A 4.9999998 4.9999998 0 0 1 36.621094 35.330078 A 4.9999998 4.9999998 0 0 1 36.511719 35.482422 A 4.9999998 4.9999998 0 0 1 36.398438 35.632812 A 4.9999998 4.9999998 0 0 1 36.277344 35.775391 A 4.9999998 4.9999998 0 0 1 36.150391 35.916016 A 4.9999998 4.9999998 0 0 1 36.019531 36.050781 A 4.9999998 4.9999998 0 0 1 35.884766 36.179688 A 4.9999998 4.9999998 0 0 1 35.744141 36.304688 A 4.9999998 4.9999998 0 0 1 35.597656 36.423828 A 4.9999998 4.9999998 0 0 1 35.449219 36.539062 A 4.9999998 4.9999998 0 0 1 35.294922 36.646484 A 4.9999998 4.9999998 0 0 1 35.136719 36.748047 A 4.9999998 4.9999998 0 0 1 34.974609 36.84375 A 4.9999998 4.9999998 0 0 1 34.810547 36.933594 A 4.9999998 4.9999998 0 0 1 34.640625 37.017578 A 4.9999998 4.9999998 0 0 1 34.470703 37.095703 A 4.9999998 4.9999998 0 0 1 34.296875 37.166016 A 4.9999998 4.9999998 0 0 1 34.119141 37.230469 A 4.9999998 4.9999998 0 0 1 33.939453 37.287109 A 4.9999998 4.9999998 0 0 1 33.759766 37.337891 A 4.9999998 4.9999998 0 0 1 33.576172 37.382812 A 4.9999998 4.9999998 0 0 1 33.392578 37.419922 A 4.9999998 4.9999998 0 0 1 33.207031 37.449219 A 4.9999998 4.9999998 0 0 1 33.019531 37.472656 A 4.9999998 4.9999998 0 0 1 32.832031 37.488281 A 4.9999998 4.9999998 0 0 1 32.644531 37.498047 A 4.9999998 4.9999998 0 0 1 32.5 37.5 A 4.9999998 4.9999998 0 0 1 32.3125 37.496094 A 4.9999998 4.9999998 0 0 1 32.125 37.486328 A 4.9999998 4.9999998 0 0 1 31.9375 37.46875 A 4.9999998 4.9999998 0 0 1 31.75 37.443359 A 4.9999998 4.9999998 0 0 1 31.564453 37.412109 A 4.9999998 4.9999998 0 0 1 31.380859 37.373047 A 4.9999998 4.9999998 0 0 1 31.199219 37.328125 A 4.9999998 4.9999998 0 0 1 31.017578 37.275391 A 4.9999998 4.9999998 0 0 1 30.839844 37.216797 A 4.9999998 4.9999998 0 0 1 30.664062 37.150391 A 4.9999998 4.9999998 0 0 1 30.490234 37.078125 A 4.9999998 4.9999998 0 0 1 30.320312 37 A 4.9999998 4.9999998 0 0 1 30.152344 36.914062 A 4.9999998 4.9999998 0 0 1 29.988281 36.822266 A 4.9999998 4.9999998 0 0 1 29.826172 36.724609 A 4.9999998 4.9999998 0 0 1 29.669922 36.621094 A 4.9999998 4.9999998 0 0 1 29.517578 36.511719 A 4.9999998 4.9999998 0 0 1 29.367188 36.398438 A 4.9999998 4.9999998 0 0 1 29.224609 36.277344 A 4.9999998 4.9999998 0 0 1 29.083984 36.150391 A 4.9999998 4.9999998 0 0 1 28.949219 36.019531 A 4.9999998 4.9999998 0 0 1 28.820312 35.884766 A 4.9999998 4.9999998 0 0 1 28.695312 35.744141 A 4.9999998 4.9999998 0 0 1 28.576172 35.597656 A 4.9999998 4.9999998 0 0 1 28.460938 35.449219 A 4.9999998 4.9999998 0 0 1 28.353516 35.294922 A 4.9999998 4.9999998 0 0 1 28.251953 35.136719 A 4.9999998 4.9999998 0 0 1 28.15625 34.974609 A 4.9999998 4.9999998 0 0 1 28.066406 34.810547 A 4.9999998 4.9999998 0 0 1 27.982422 34.640625 A 4.9999998 4.9999998 0 0 1 27.904297 34.470703 A 4.9999998 4.9999998 0 0 1 27.833984 34.296875 A 4.9999998 4.9999998 0 0 1 27.769531 34.119141 A 4.9999998 4.9999998 0 0 1 27.712891 33.939453 A 4.9999998 4.9999998 0 0 1 27.662109 33.759766 A 4.9999998 4.9999998 0 0 1 27.617188 33.576172 A 4.9999998 4.9999998 0 0 1 27.580078 33.392578 A 4.9999998 4.9999998 0 0 1 27.550781 33.207031 A 4.9999998 4.9999998 0 0 1 27.527344 33.019531 A 4.9999998 4.9999998 0 0 1 27.511719 32.832031 A 4.9999998 4.9999998 0 0 1 27.501953 32.644531 A 4.9999998 4.9999998 0 0 1 27.5 32.5 A 4.9999998 4.9999998 0 0 1 27.503906 32.3125 A 4.9999998 4.9999998 0 0 1 27.513672 32.125 A 4.9999998 4.9999998 0 0 1 27.53125 31.9375 A 4.9999998 4.9999998 0 0 1 27.556641 31.75 A 4.9999998 4.9999998 0 0 1 27.587891 31.564453 A 4.9999998 4.9999998 0 0 1 27.626953 31.380859 A 4.9999998 4.9999998 0 0 1 27.671875 31.199219 A 4.9999998 4.9999998 0 0 1 27.724609 31.017578 A 4.9999998 4.9999998 0 0 1 27.783203 30.839844 A 4.9999998 4.9999998 0 0 1 27.849609 30.664062 A 4.9999998 4.9999998 0 0 1 27.921875 30.490234 A 4.9999998 4.9999998 0 0 1 28 30.320312 A 4.9999998 4.9999998 0 0 1 28.085938 30.152344 A 4.9999998 4.9999998 0 0 1 28.177734 29.988281 A 4.9999998 4.9999998 0 0 1 28.275391 29.826172 A 4.9999998 4.9999998 0 0 1 28.378906 29.669922 A 4.9999998 4.9999998 0 0 1 28.488281 29.517578 A 4.9999998 4.9999998 0 0 1 28.601562 29.367188 A 4.9999998 4.9999998 0 0 1 28.722656 29.224609 A 4.9999998 4.9999998 0 0 1 28.849609 29.083984 A 4.9999998 4.9999998 0 0 1 28.980469 28.949219 A 4.9999998 4.9999998 0 0 1 29.115234 28.820312 A 4.9999998 4.9999998 0 0 1 29.255859 28.695312 A 4.9999998 4.9999998 0 0 1 29.402344 28.576172 A 4.9999998 4.9999998 0 0 1 29.550781 28.460938 A 4.9999998 4.9999998 0 0 1 29.705078 28.353516 A 4.9999998 4.9999998 0 0 1 29.863281 28.251953 A 4.9999998 4.9999998 0 0 1 30.025391 28.15625 A 4.9999998 4.9999998 0 0 1 30.189453 28.066406 A 4.9999998 4.9999998 0 0 1 30.359375 27.982422 A 4.9999998 4.9999998 0 0 1 30.529297 27.904297 A 4.9999998 4.9999998 0 0 1 30.703125 27.833984 A 4.9999998 4.9999998 0 0 1 30.880859 27.769531 A 4.9999998 4.9999998 0 0 1 31.060547 27.712891 A 4.9999998 4.9999998 0 0 1 31.240234 27.662109 A 4.9999998 4.9999998 0 0 1 31.423828 27.617188 A 4.9999998 4.9999998 0 0 1 31.607422 27.580078 A 4.9999998 4.9999998 0 0 1 31.792969 27.550781 A 4.9999998 4.9999998 0 0 1 31.980469 27.527344 A 4.9999998 4.9999998 0 0 1 32.167969 27.511719 A 4.9999998 4.9999998 0 0 1 32.355469 27.501953 A 4.9999998 4.9999998 0 0 1 32.5 27.5 z "
       transform="scale(0.26458333)" />
    <path
       id="rect2676"
       style="opacity:0.998;fill:#666666;stroke:none;stroke-width:0.529167;stroke-linejoin:bevel"
       d="m 12.145816,5.4818796 0.926041,1.6039513 -1.242523,1.0228853 -1.190625,-2.062223 z" />
    <path
       id="rect2676-6"
       style="opacity:0.998;fill:#666666;stroke:none;stroke-width:0.529167;stroke-linejoin:bevel"
       d="M 4.1260593,10.112087 5.052101,11.716039 6.5592077,11.151424 5.3685827,9.0892011 Z" />
    <path
       id="rect2676-5"
       style="opacity:0.998;fill:#666666;stroke:none;stroke-width:0.529167;stroke-linejoin:bevel"
       d="M 4.1260599,7.08583 5.0521016,5.4818787 6.5592081,6.0464931 5.3685831,8.1087161 Z" />
    <path
       id="rect2676-6-1"
       style="opacity:0.998;fill:#666666;stroke:none;stroke-width:0.529167;stroke-linejoin:bevel"
       d="M 12.145816,11.716039 13.071857,10.112088 11.829333,9.0892021 10.638708,11.151425 Z" />
    <path
       id="rect2676-1"
       style="opacity:0.998;fill:#666666;stroke:none;stroke-width:0.529167;stroke-linejoin:bevel"
       d="m 7.6729172,3.96875 h 1.8520834 l 0.2645828,1.5874997 h -2.38125 z" />
    <path
       id="rect2676-6-12"
       style="opacity:0.998;fill:#666666;stroke:none;stroke-width:0.529167;stroke-linejoin:bevel"
       d="M 7.6729166,13.229167 H 9.525 l 0.2645828,-1.5875 h -2.38125 z" />
    <path
       id="path2800-0"
       style="opacity:0.998;fill:#999999;stroke:none;stroke-width:0.529167;stroke-linejoin:bevel"
       d="M 8.2753832,4.9881579 A 3.3072914,3.3072914 0 0 0 4.971709,8.2954496 3.3072914,3.3072914 0 0 0 8.2790006,11.602741 3.3072914,3.3072914 0 0 0 11.586292,8.2954496 3.3072914,3.3072914 0 0 0 8.2790006,4.9881579 a 3.3072914,3.3072914 0 0 0 -0.00362,0 z m 0.00362,1.984375 a 1.3229166,1.3229166 0 0 1 0.049609,0.00103 1.3229166,1.3229166 0 0 1 0.049609,0.00259 1.3229166,1.3229166 0 0 1 0.049609,0.00465 1.3229166,1.3229166 0 0 1 0.049609,0.00672 1.3229166,1.3229166 0 0 1 0.049093,0.00827 1.3229166,1.3229166 0 0 1 0.048576,0.010335 1.3229166,1.3229166 0 0 1 0.048059,0.011885 1.3229166,1.3229166 0 0 1 0.048059,0.013952 1.3229166,1.3229166 0 0 1 0.047025,0.015502 1.3229166,1.3229166 0 0 1 0.046509,0.017571 1.3229166,1.3229166 0 0 1 0.045992,0.019121 1.3229166,1.3229166 0 0 1 0.044958,0.020672 1.3229166,1.3229166 0 0 1 0.044442,0.022738 1.3229166,1.3229166 0 0 1 0.043408,0.024289 1.3229166,1.3229166 0 0 1 0.042891,0.025839 1.3229166,1.3229166 0 0 1 0.041341,0.027388 1.3229166,1.3229166 0 0 1 0.040308,0.028939 1.3229166,1.3229166 0 0 1 0.039791,0.029972 1.3229166,1.3229166 0 0 1 0.037724,0.032039 1.3229166,1.3229166 0 0 1 0.037207,0.03359 1.3229166,1.3229166 0 0 1 0.035657,0.034623 1.3229166,1.3229166 0 0 1 0.034107,0.035657 1.3229166,1.3229166 0 0 1 0.033073,0.037207 1.3229166,1.3229166 0 0 1 0.031522,0.038758 1.3229166,1.3229166 0 0 1 0.030489,0.039274 1.3229166,1.3229166 0 0 1 0.028422,0.040824 1.3229166,1.3229166 0 0 1 0.026872,0.041858 1.3229166,1.3229166 0 0 1 0.025321,0.042892 1.3229166,1.3229166 0 0 1 0.02377,0.043408 1.3229166,1.3229166 0 0 1 0.02222,0.044958 1.3229166,1.3229166 0 0 1 0.020672,0.044958 1.3229166,1.3229166 0 0 1 0.018603,0.045992 1.3229166,1.3229166 0 0 1 0.017052,0.047026 1.3229166,1.3229166 0 0 1 0.014986,0.047542 1.3229166,1.3229166 0 0 1 0.013435,0.047542 1.3229166,1.3229166 0 0 1 0.011885,0.048576 1.3229166,1.3229166 0 0 1 0.00982,0.048576 1.3229166,1.3229166 0 0 1 0.00775,0.049093 1.3229166,1.3229166 0 0 1 0.0062,0.049609 1.3229166,1.3229166 0 0 1 0.00414,0.049609 1.3229166,1.3229166 0 0 1 0.00259,0.049609 1.3229166,1.3229166 0 0 1 5.088e-4,0.03823 1.3229166,1.3229166 0 0 1 -0.00103,0.049609 1.3229166,1.3229166 0 0 1 -0.00259,0.049609 1.3229166,1.3229166 0 0 1 -0.00465,0.049609 1.3229166,1.3229166 0 0 1 -0.00672,0.049609 1.3229166,1.3229166 0 0 1 -0.00827,0.049093 1.3229166,1.3229166 0 0 1 -0.010335,0.048576 1.3229166,1.3229166 0 0 1 -0.011885,0.048059 1.3229166,1.3229166 0 0 1 -0.013952,0.048059 1.3229166,1.3229166 0 0 1 -0.015502,0.047026 1.3229166,1.3229166 0 0 1 -0.017571,0.046509 1.3229166,1.3229166 0 0 1 -0.019121,0.045992 1.3229166,1.3229166 0 0 1 -0.020664,0.044959 1.3229166,1.3229166 0 0 1 -0.022738,0.044441 1.3229166,1.3229166 0 0 1 -0.024289,0.043408 1.3229166,1.3229166 0 0 1 -0.025839,0.042891 1.3229166,1.3229166 0 0 1 -0.027388,0.041341 1.3229166,1.3229166 0 0 1 -0.028939,0.040308 1.3229166,1.3229166 0 0 1 -0.029972,0.039791 1.3229166,1.3229166 0 0 1 -0.032039,0.037724 1.3229166,1.3229166 0 0 1 -0.03359,0.037207 1.3229166,1.3229166 0 0 1 -0.034623,0.035657 1.3229166,1.3229166 0 0 1 -0.035657,0.034107 1.3229166,1.3229166 0 0 1 -0.037207,0.033073 1.3229166,1.3229166 0 0 1 -0.038757,0.031522 1.3229166,1.3229166 0 0 1 -0.039274,0.030489 1.3229166,1.3229166 0 0 1 -0.040824,0.028422 1.3229166,1.3229166 0 0 1 -0.041858,0.026872 1.3229166,1.3229166 0 0 1 -0.042892,0.025321 1.3229166,1.3229166 0 0 1 -0.043408,0.02377 1.3229166,1.3229166 0 0 1 -0.044959,0.02222 1.3229166,1.3229166 0 0 1 -0.044958,0.020672 1.3229166,1.3229166 0 0 1 -0.045992,0.018603 1.3229166,1.3229166 0 0 1 -0.047025,0.017052 1.3229166,1.3229166 0 0 1 -0.047543,0.014986 1.3229166,1.3229166 0 0 1 -0.047542,0.013436 1.3229166,1.3229166 0 0 1 -0.048576,0.011885 1.3229166,1.3229166 0 0 1 -0.048576,0.00982 1.3229166,1.3229166 0 0 1 -0.049093,0.00775 1.3229166,1.3229166 0 0 1 -0.049609,0.0062 1.3229166,1.3229166 0 0 1 -0.049609,0.00414 1.3229166,1.3229166 0 0 1 -0.049609,0.00259 A 1.3229166,1.3229166 0 0 1 8.279004,9.6183617 1.3229166,1.3229166 0 0 1 8.229395,9.6173317 1.3229166,1.3229166 0 0 1 8.179786,9.6147417 1.3229166,1.3229166 0 0 1 8.130177,9.6100917 1.3229166,1.3229166 0 0 1 8.080568,9.6033717 1.3229166,1.3229166 0 0 1 8.031475,9.5951017 1.3229166,1.3229166 0 0 1 7.982899,9.5847667 1.3229166,1.3229166 0 0 1 7.93484,9.5728817 1.3229166,1.3229166 0 0 1 7.886781,9.5589307 1.3229166,1.3229166 0 0 1 7.839755,9.5434287 1.3229166,1.3229166 0 0 1 7.793246,9.5258577 1.3229166,1.3229166 0 0 1 7.747254,9.5067367 1.3229166,1.3229166 0 0 1 7.702296,9.4860727 1.3229166,1.3229166 0 0 1 7.657855,9.4633347 1.3229166,1.3229166 0 0 1 7.614447,9.4390457 1.3229166,1.3229166 0 0 1 7.571556,9.4132067 1.3229166,1.3229166 0 0 1 7.530215,9.3858187 1.3229166,1.3229166 0 0 1 7.489907,9.3568797 1.3229166,1.3229166 0 0 1 7.450116,9.3269077 1.3229166,1.3229166 0 0 1 7.412392,9.2948687 1.3229166,1.3229166 0 0 1 7.375185,9.2612787 1.3229166,1.3229166 0 0 1 7.339529,9.2266557 1.3229166,1.3229166 0 0 1 7.305422,9.1909987 1.3229166,1.3229166 0 0 1 7.272349,9.1537917 1.3229166,1.3229166 0 0 1 7.240827,9.1150337 1.3229166,1.3229166 0 0 1 7.210338,9.0757597 1.3229166,1.3229166 0 0 1 7.181916,9.0349357 1.3229166,1.3229166 0 0 1 7.155044,8.9930777 1.3229166,1.3229166 0 0 1 7.129723,8.9501857 1.3229166,1.3229166 0 0 1 7.105953,8.9067777 1.3229166,1.3229166 0 0 1 7.083733,8.8618197 1.3229166,1.3229166 0 0 1 7.063061,8.8168607 1.3229166,1.3229166 0 0 1 7.044458,8.7708687 1.3229166,1.3229166 0 0 1 7.027406,8.7238437 1.3229166,1.3229166 0 0 1 7.01242,8.6763007 1.3229166,1.3229166 0 0 1 6.998985,8.6287587 1.3229166,1.3229166 0 0 1 6.9871,8.5801827 1.3229166,1.3229166 0 0 1 6.97728,8.5316067 1.3229166,1.3229166 0 0 1 6.96953,8.4825137 1.3229166,1.3229166 0 0 1 6.96333,8.4329047 1.3229166,1.3229166 0 0 1 6.95919,8.3832957 1.3229166,1.3229166 0 0 1 6.9566,8.3336867 a 1.3229166,1.3229166 0 0 1 -5.088e-4,-0.038238 1.3229166,1.3229166 0 0 1 0.00103,-0.049609 1.3229166,1.3229166 0 0 1 0.00259,-0.049609 1.3229166,1.3229166 0 0 1 0.00465,-0.049609 1.3229166,1.3229166 0 0 1 0.00672,-0.049609 1.3229166,1.3229166 0 0 1 0.00827,-0.049093 1.3229166,1.3229166 0 0 1 0.010335,-0.048576 1.3229166,1.3229166 0 0 1 0.011885,-0.048059 1.3229166,1.3229166 0 0 1 0.013952,-0.048059 1.3229166,1.3229166 0 0 1 0.015502,-0.047025 1.3229166,1.3229166 0 0 1 0.017571,-0.046509 1.3229166,1.3229166 0 0 1 0.019121,-0.045992 1.3229166,1.3229166 0 0 1 0.020664,-0.044959 1.3229166,1.3229166 0 0 1 0.022738,-0.044442 1.3229166,1.3229166 0 0 1 0.024289,-0.043408 1.3229166,1.3229166 0 0 1 0.025839,-0.042891 1.3229166,1.3229166 0 0 1 0.027388,-0.041341 1.3229166,1.3229166 0 0 1 0.028939,-0.040308 1.3229166,1.3229166 0 0 1 0.029972,-0.039791 1.3229166,1.3229166 0 0 1 0.032039,-0.037724 1.3229166,1.3229166 0 0 1 0.03359,-0.037207 1.3229166,1.3229166 0 0 1 0.034623,-0.035657 1.3229166,1.3229166 0 0 1 0.035656,-0.034107 1.3229166,1.3229166 0 0 1 0.037207,-0.033073 1.3229166,1.3229166 0 0 1 0.038758,-0.031522 1.3229166,1.3229166 0 0 1 0.039274,-0.030489 1.3229166,1.3229166 0 0 1 0.040824,-0.028422 1.3229166,1.3229166 0 0 1 0.041858,-0.026872 1.3229166,1.3229166 0 0 1 0.042892,-0.025321 1.3229166,1.3229166 0 0 1 0.043408,-0.02377 1.3229166,1.3229166 0 0 1 0.044958,-0.02222 1.3229166,1.3229166 0 0 1 0.044958,-0.020672 1.3229166,1.3229166 0 0 1 0.045992,-0.018603 1.3229166,1.3229166 0 0 1 0.047026,-0.017052 1.3229166,1.3229166 0 0 1 0.047542,-0.014986 1.3229166,1.3229166 0 0 1 0.047542,-0.013436 1.3229166,1.3229166 0 0 1 0.048576,-0.011885 1.3229166,1.3229166 0 0 1 0.048576,-0.00982 1.3229166,1.3229166 0 0 1 0.049093,-0.00775 1.3229166,1.3229166 0 0 1 0.049609,-0.0062 1.3229166,1.3229166 0 0 1 0.049609,-0.00414 1.3229166,1.3229166 0 0 1 0.049609,-0.00259 1.3229166,1.3229166 0 0 1 0.038238,-5.088e-4 z" />
    <path
       id="rect2676-0"
       style="opacity:0.998;fill:#999999;stroke:none;stroke-width:0.529167;stroke-linejoin:bevel"
       d="m 11.825858,5.1783709 0.926041,1.6039513 -1.242523,1.0228853 -1.190625,-2.062223 z" />
    <path
       id="rect2676-6-5"
       style="opacity:0.998;fill:#999999;stroke:none;stroke-width:0.529167;stroke-linejoin:bevel"
       d="M 3.8061017,9.8085783 4.7321434,11.412531 6.2392501,10.847916 5.0486251,8.7856924 Z" />
    <path
       id="rect2676-5-3"
       style="opacity:0.998;fill:#999999;stroke:none;stroke-width:0.529167;stroke-linejoin:bevel"
       d="M 3.8061023,6.7823213 4.732144,5.17837 6.2392505,5.7429844 5.0486255,7.8052074 Z" />
    <path
       id="rect2676-6-1-8"
       style="opacity:0.998;fill:#999999;stroke:none;stroke-width:0.529167;stroke-linejoin:bevel"
       d="M 11.825858,11.412531 12.751899,9.8085793 11.509375,8.7856934 10.31875,10.847917 Z" />
    <path
       id="rect2676-1-7"
       style="opacity:0.998;fill:#999999;stroke:none;stroke-width:0.529167;stroke-linejoin:bevel"
       d="M 7.3529596,3.6652413 H 9.205043 L 9.4696258,5.252741 h -2.38125 z" />
    <path
       id="rect2676-6-12-5"
       style="opacity:0.998;fill:#999999;stroke:none;stroke-width:0.529167;stroke-linejoin:bevel"
       d="m 7.352959,12.925659 h 1.8520834 l 0.2645828,-1.5875 h -2.38125 z" />
  </g>
</svg>
